<?xml version="1.0" encoding="UTF-8" standalone="no"?>
<!-- Created with Inkscape (http://www.inkscape.org/) -->

<svg
   xmlns:dc="http://purl.org/dc/elements/1.1/"
   xmlns:cc="http://creativecommons.org/ns#"
   xmlns:rdf="http://www.w3.org/1999/02/22-rdf-syntax-ns#"
   xmlns:svg="http://www.w3.org/2000/svg"
   xmlns="http://www.w3.org/2000/svg"
   xmlns:sodipodi="http://sodipodi.sourceforge.net/DTD/sodipodi-0.dtd"
   xmlns:inkscape="http://www.inkscape.org/namespaces/inkscape"
   version="1.1"
   id="svg913"
   width="1365.3333"
   height="682.66669"
   viewBox="0 0 1365.3333 682.66669"
   sodipodi:docname="share_obs_clean_b.svg"
   inkscape:export-filename="/home/olivier/devs/obsapis/obsapis/resources/visuels/visuelstat21clean/share_obs_clean_bt2.png"
   inkscape:export-xdpi="144"
   inkscape:export-ydpi="144"
   inkscape:version="0.92.3 (2405546, 2018-03-11)">
  <metadata
     id="metadata919">
    <rdf:RDF>
      <cc:Work
         rdf:about="">
        <dc:format>image/svg+xml</dc:format>
        <dc:type
           rdf:resource="http://purl.org/dc/dcmitype/StillImage" />
        <dc:title />
      </cc:Work>
    </rdf:RDF>
  </metadata>
  <defs
     id="defs917" />
  <sodipodi:namedview
     pagecolor="#ffffff"
     bordercolor="#666666"
     borderopacity="1"
     objecttolerance="10"
     gridtolerance="10"
     guidetolerance="10"
     inkscape:pageopacity="0"
     inkscape:pageshadow="2"
     inkscape:window-width="1920"
     inkscape:window-height="994"
     id="namedview915"
     showgrid="false"
     inkscape:zoom="0.12830985"
     inkscape:cx="1408.2808"
     inkscape:cy="76.812011"
     inkscape:window-x="0"
     inkscape:window-y="0"
     inkscape:window-maximized="1"
     inkscape:current-layer="svg913" />
  <rect
     style="fill:#ffffff;fill-opacity:1;stroke:none;stroke-width:2.83464575;stroke-opacity:1"
     id="rect1061"
     width="1997.7126"
     height="804.59601"
     x="-371.98788"
     y="-157.75035" />
  <rect
     style="fill:#213659;fill-opacity:1;stroke:none;stroke-width:2.83464575;stroke-opacity:1"
     id="rect1057"
     width="1365.3649"
     height="72.330994"
     x="-0.031566877"
     y="612.33569" />
  <g
     id="g1087"
     transform="translate(6.3860727,128.79919)"
     style="fill:#280b0b">
    <text
       id="text925"
       y="529.659"
       x="415.63272"
       style="font-style:normal;font-variant:normal;font-weight:normal;font-stretch:normal;font-size:30.38200951px;line-height:1.25;font-family:Montserrat;-inkscape-font-specification:Montserrat;letter-spacing:0px;word-spacing:0px;fill:#ffffff;fill-opacity:1;stroke:none;stroke-width:0.75955027"
       xml:space="preserve"><tspan
         style="font-style:normal;font-variant:normal;font-weight:bold;font-stretch:normal;font-family:Montserrat;-inkscape-font-specification:'Montserrat Bold';fill:#ffffff;stroke-width:0.75955027"
         y="529.659"
         x="415.63272"
         id="tspan923"
         sodipodi:role="line">www.observatoire-democratie.fr</tspan></text>
  </g>
  <g
     id="g1077"
     transform="matrix(0.05599329,0,0,0.05599329,1087.3967,632.59337)"
     style="fill:#ffffff">
    <g
       id="g1020"
       style="fill:#ffffff">
      <g
         id="g1018"
         style="fill:#ffffff">
        <path
           id="path1016"
           d="m 612,116.258 c -22.525,9.981 -46.694,16.75 -72.088,19.772 25.929,-15.527 45.777,-40.155 55.184,-69.411 -24.322,14.379 -51.169,24.82 -79.775,30.48 -22.907,-24.437 -55.49,-39.658 -91.63,-39.658 -69.334,0 -125.551,56.217 -125.551,125.513 0,9.828 1.109,19.427 3.251,28.606 -104.326,-5.24 -196.835,-55.223 -258.75,-131.174 -10.823,18.51 -16.98,40.078 -16.98,63.101 0,43.559 22.181,81.993 55.835,104.479 C 60.921,247.278 41.57,241.618 24.629,232.21 v 1.568 c 0,60.806 43.291,111.554 100.693,123.104 -10.517,2.83 -21.607,4.398 -33.08,4.398 -8.107,0 -15.947,-0.803 -23.634,-2.333 15.985,49.907 62.336,86.199 117.253,87.194 -42.947,33.654 -97.099,53.655 -155.916,53.655 -10.134,0 -20.116,-0.612 -29.944,-1.721 55.567,35.681 121.536,56.485 192.438,56.485 230.948,0 357.188,-191.291 357.188,-357.188 l -0.421,-16.253 C 573.872,163.526 595.211,141.422 612,116.258 Z"
           style="fill:#ffffff"
           inkscape:connector-curvature="0" />
      </g>
    </g>
    <g
       id="g1022"
       style="fill:#ffffff" />
    <g
       id="g1024"
       style="fill:#ffffff" />
    <g
       id="g1026"
       style="fill:#ffffff" />
    <g
       id="g1028"
       style="fill:#ffffff" />
    <g
       id="g1030"
       style="fill:#ffffff" />
    <g
       id="g1032"
       style="fill:#ffffff" />
    <g
       id="g1034"
       style="fill:#ffffff" />
    <g
       id="g1036"
       style="fill:#ffffff" />
    <g
       id="g1038"
       style="fill:#ffffff" />
    <g
       id="g1040"
       style="fill:#ffffff" />
    <g
       id="g1042"
       style="fill:#ffffff" />
    <g
       id="g1044"
       style="fill:#ffffff" />
    <g
       id="g1046"
       style="fill:#ffffff" />
    <g
       id="g1048"
       style="fill:#ffffff" />
    <g
       id="g1050"
       style="fill:#ffffff" />
  </g>
  <text
     id="text1081"
     y="656.89569"
     x="1127.3376"
     style="font-style:normal;font-variant:normal;font-weight:normal;font-stretch:normal;font-size:24.46538734px;line-height:1.25;font-family:Montserrat;-inkscape-font-specification:Montserrat;letter-spacing:0px;word-spacing:0px;fill:#ffffff;fill-opacity:1;stroke:none;stroke-width:0.61163473"
     xml:space="preserve"><tspan
       style="font-style:normal;font-variant:normal;font-weight:bold;font-stretch:normal;font-family:NanumGothic;-inkscape-font-specification:'NanumGothic Bold';fill:#ffffff;stroke-width:0.61163473"
       y="656.89569"
       x="1127.3376"
       id="tspan1079"
       sodipodi:role="line">@Obs_Democratie</tspan></text>
  <g
     id="g1055"
     transform="translate(16.085002,620.06449)">
    <path
       id="path965"
       d="M 195.647,44.75 V 30.852 H 206 v 3.125 h -6.711 v 2.168 h 6.564 v 3.125 h -6.564 v 2.355 H 206 v 3.125 z"
       inkscape:connector-curvature="0"
       style="fill:#ffffff" />
    <path
       id="path967"
       d="M 189.68,44.75 V 30.852 h 3.641 V 44.75 Z"
       inkscape:connector-curvature="0"
       style="fill:#ffffff" />
    <path
       id="path969"
       d="M 180.575,44.75 V 33.977 h -3.956 v -3.125 h 11.535 v 3.125 h -3.937 V 44.75 Z"
       inkscape:connector-curvature="0"
       style="fill:#ffffff" />
    <path
       id="path971"
       d="m 173.78,44.75 -0.699,-2 h -5.568 l -0.698,2 h -4.127 l 5.313,-13.898 h 4.572 l 5.336,13.898 z m -3.494,-10.356 -1.799,5.23 h 3.6 z"
       inkscape:connector-curvature="0"
       style="fill:#ffffff" />
    <path
       id="path973"
       d="m 158.285,44.75 -2.372,-4.668 h -1.862 V 44.75 H 150.41 V 30.852 h 7.071 c 3.131,0 4.91,2.041 4.91,4.626 0,2.417 -1.503,3.709 -2.815,4.167 l 2.878,5.105 z m 0.402,-9.293 c 0,-0.938 -0.804,-1.48 -1.759,-1.48 h -2.877 v 2.98 h 2.877 c 0.955,0 1.759,-0.521 1.759,-1.5 z"
       inkscape:connector-curvature="0"
       style="fill:#ffffff" />
    <path
       id="path975"
       d="m 135.252,37.812 c 0,-4.293 3.302,-7.189 7.641,-7.189 3.41,0 5.229,1.896 6.161,3.729 l -3.133,1.459 c -0.467,-1.104 -1.673,-2.021 -3.028,-2.021 -2.307,0 -3.936,1.751 -3.936,4.022 0,2.271 1.629,4.021 3.936,4.021 1.355,0 2.562,-0.917 3.028,-2.021 l 3.133,1.458 c -0.911,1.792 -2.751,3.729 -6.161,3.729 -4.339,10e-4 -7.641,-2.916 -7.641,-7.187 z"
       inkscape:connector-curvature="0"
       style="fill:#ffffff" />
    <path
       id="path977"
       d="m 119.246,37.812 c 0,-4.23 3.24,-7.189 7.558,-7.189 4.319,0 7.538,2.959 7.538,7.189 0,4.229 -3.219,7.188 -7.538,7.188 -4.318,0 -7.558,-2.959 -7.558,-7.188 z m 11.389,0 c 0,-2.271 -1.502,-4.022 -3.831,-4.022 -2.351,0 -3.853,1.751 -3.853,4.022 0,2.251 1.502,4.021 3.853,4.021 2.329,0 3.831,-1.77 3.831,-4.021 z"
       inkscape:connector-curvature="0"
       style="fill:#ffffff" />
    <path
       id="path979"
       d="m 113.996,44.75 v -9.043 l -3.577,9.043 h -1.609 l -3.557,-9.043 v 9.043 h -3.641 V 30.852 h 5.059 l 2.943,7.543 2.963,-7.543 h 5.061 V 44.75 Z"
       inkscape:connector-curvature="0"
       style="fill:#ffffff" />
    <polygon
       id="polygon981"
       points="92.996,39.27 99.558,39.27 99.558,36.145 92.996,36.145 92.996,33.977 99.707,33.977 99.707,30.852 89.355,30.852 89.355,44.75 99.707,44.75 99.707,41.625 92.996,41.625 "
       style="fill:#ffffff" />
    <polygon
       id="polygon983"
       points="95.347,29.498 99.549,26.393 96.166,26.393 93.143,29.498 "
       style="fill:#ffffff" />
    <path
       id="path985"
       d="M 74.175,44.75 V 30.852 h 5.927 c 4.446,0 7.642,2.625 7.642,6.939 0,4.313 -3.196,6.959 -7.621,6.959 z m 9.844,-6.959 c 0,-2.146 -1.312,-3.814 -3.895,-3.814 h -2.307 v 7.648 h 2.286 c 2.477,0 3.916,-1.771 3.916,-3.834 z"
       inkscape:connector-curvature="0"
       style="fill:#ffffff" />
    <path
       id="path987"
       d="m 59.531,44.75 v -6.052 h 0.804 v 5.381 h 3.15 v 0.671 z"
       inkscape:connector-curvature="0"
       style="fill:#ffffff" />
    <path
       id="path989"
       d="m 69.652,44.75 -0.571,-1.342 h -3.216 l -0.572,1.342 h -0.919 l 2.595,-6.052 h 0.998 l 2.606,6.052 z m -2.179,-5.271 -1.375,3.258 h 2.741 z"
       inkscape:connector-curvature="0"
       style="fill:#ffffff" />
    <path
       id="path991"
       d="m 65.356,36.903 v -6.052 h 4.233 v 0.671 H 66.16 v 1.951 h 3.361 v 0.671 H 66.16 v 2.088 h 3.429 v 0.671 z"
       inkscape:connector-curvature="0"
       style="fill:#ffffff" />
    <path
       id="path993"
       d="m 59.531,36.903 v -6.052 h 1.903 c 2.005,0 3.313,1.316 3.313,3.03 0,1.725 -1.308,3.021 -3.313,3.021 h -1.903 z m 4.383,-3.021 c 0,-1.306 -0.881,-2.359 -2.479,-2.359 h -1.099 v 4.71 h 1.099 c 1.569,-10e-4 2.479,-1.053 2.479,-2.351 z"
       inkscape:connector-curvature="0"
       style="fill:#ffffff" />
    <path
       id="path995"
       d="M 188.923,24.816 V 10.918 h 8.778 v 1.083 h -7.594 v 5.147 h 7.449 v 1.083 h -7.449 v 5.501 h 7.594 v 1.083 h -8.778 z"
       inkscape:connector-curvature="0"
       style="fill:#ffffff" />
    <path
       id="path997"
       d="m 184.918,24.816 -3.88,-5.751 h -3.051 v 5.751 h -1.184 V 10.918 h 5.167 c 2.388,0 4.214,1.521 4.214,4.063 0,2.521 -1.765,3.917 -3.839,4.001 l 4.005,5.834 z m 0.021,-9.835 c 0,-1.75 -1.226,-2.98 -3.072,-2.98 h -3.88 v 5.98 h 3.88 c 1.847,10e-4 3.072,-1.249 3.072,-3 z"
       inkscape:connector-curvature="0"
       style="fill:#ffffff" />
    <path
       id="path999"
       d="M 172.383,24.816 V 10.918 h 1.185 v 13.898 z"
       inkscape:connector-curvature="0"
       style="fill:#ffffff" />
    <path
       id="path1001"
       d="m 156.216,17.878 c 0,-4.064 2.657,-7.189 6.725,-7.189 4.047,0 6.723,3.125 6.723,7.189 0,4.063 -2.676,7.188 -6.723,7.188 -4.068,0 -6.725,-3.125 -6.725,-7.188 z m 12.202,0 c 0,-3.522 -2.158,-6.106 -5.478,-6.106 -3.343,0 -5.479,2.584 -5.479,6.106 0,3.5 2.137,6.105 5.479,6.105 3.32,0 5.478,-2.605 5.478,-6.105 z"
       inkscape:connector-curvature="0"
       style="fill:#ffffff" />
    <path
       id="path1003"
       d="M 149.366,24.816 V 12.001 h -4.524 v -1.083 h 10.253 v 1.083 h -4.524 v 12.815 z"
       inkscape:connector-curvature="0"
       style="fill:#ffffff" />
    <path
       id="path1005"
       d="m 144.073,24.816 -1.368,-3.417 h -7.326 l -1.37,3.417 h -1.369 l 5.665,-13.898 h 1.473 l 5.667,13.898 z m -5.019,-12.627 -3.281,8.127 h 6.539 z"
       inkscape:connector-curvature="0"
       style="fill:#ffffff" />
    <path
       id="path1007"
       d="m 126.267,24.816 -5.664,-13.898 h 1.368 l 5.045,12.565 5.021,-12.565 h 1.37 l -5.665,13.898 z"
       inkscape:connector-curvature="0"
       style="fill:#ffffff" />
    <path
       id="path1009"
       d="m 118.215,24.816 -3.882,-5.751 h -3.05 v 5.751 H 110.1 V 10.918 h 5.168 c 2.386,0 4.213,1.521 4.213,4.063 0,2.521 -1.765,3.917 -3.84,4.001 l 4.005,5.834 z m 0.021,-9.835 c 0,-1.75 -1.225,-2.98 -3.071,-2.98 h -3.882 v 5.98 h 3.882 c 1.847,10e-4 3.071,-1.249 3.071,-3 z"
       inkscape:connector-curvature="0"
       style="fill:#ffffff" />
    <path
       id="path1011"
       d="M 98.603,24.816 V 10.918 h 8.778 v 1.083 h -7.595 v 5.147 h 7.451 v 1.083 h -7.451 v 5.501 h 7.595 v 1.083 h -8.778 z"
       inkscape:connector-curvature="0"
       style="fill:#ffffff" />
    <path
       id="path1013"
       d="m 85.985,22.858 0.768,-0.896 c 0.892,1.021 2.345,2.021 4.337,2.021 2.822,0 3.632,-1.584 3.632,-2.771 0,-4.084 -8.302,-1.959 -8.302,-6.814 0,-2.271 2.034,-3.709 4.545,-3.709 2.055,0 3.632,0.729 4.69,1.958 l -0.789,0.875 c -0.996,-1.208 -2.407,-1.75 -3.963,-1.75 -1.847,0 -3.237,1.063 -3.237,2.563 0,3.563 8.301,1.605 8.301,6.793 0,1.792 -1.183,3.938 -4.918,3.938 -2.283,0 -4.006,-0.937 -5.064,-2.208 z"
       inkscape:connector-curvature="0"
       style="fill:#ffffff" />
    <path
       id="path1015"
       d="M 74.196,24.816 V 10.918 h 5.687 c 2.324,0 3.818,1.354 3.818,3.542 0,1.75 -1.183,2.938 -2.428,3.188 1.473,0.229 2.697,1.771 2.697,3.417 0,2.313 -1.494,3.75 -3.963,3.75 h -5.811 z m 8.26,-10.231 c 0,-1.417 -0.934,-2.583 -2.719,-2.583 h -4.358 v 5.147 h 4.358 c 1.785,-0.001 2.719,-1.126 2.719,-2.564 z m 0.27,6.398 c 0,-1.417 -0.975,-2.751 -2.905,-2.751 h -4.442 v 5.501 h 4.442 c 1.825,0 2.905,-1.062 2.905,-2.75 z"
       inkscape:connector-curvature="0"
       style="fill:#ffffff" />
    <path
       id="path1017"
       d="m 58.029,17.878 c 0,-4.064 2.656,-7.189 6.724,-7.189 4.047,0 6.725,3.125 6.725,7.189 0,4.063 -2.678,7.188 -6.725,7.188 -4.067,0 -6.724,-3.125 -6.724,-7.188 z m 12.203,0 c 0,-3.522 -2.159,-6.106 -5.479,-6.106 -3.341,0 -5.479,2.584 -5.479,6.106 0,3.5 2.137,6.105 5.479,6.105 3.32,0 5.479,-2.605 5.479,-6.105 z"
       inkscape:connector-curvature="0"
       style="fill:#ffffff" />
    <path
       d="m 50.894,32.967 c 0.006,-10e-4 0.014,0 0.02,0 0.36,0 0.652,-0.293 0.652,-0.654 0,-0.267 -0.158,-0.496 -0.385,-0.599 l -8.287,-5.839 h 2.022 c 0.36,0 0.653,-0.293 0.653,-0.654 0,-0.361 -0.292,-0.655 -0.653,-0.655 H 41.48 v -3.567 l 2.154,-0.563 c 0.016,-0.004 0.027,-0.016 0.042,-0.021 0.044,-0.015 0.082,-0.036 0.12,-0.059 0.036,-0.021 0.069,-0.041 0.1,-0.067 0.031,-0.028 0.056,-0.06 0.082,-0.093 0.025,-0.033 0.05,-0.065 0.069,-0.103 0.018,-0.037 0.029,-0.075 0.04,-0.114 0.012,-0.043 0.023,-0.085 0.026,-0.13 10e-4,-0.017 0.009,-0.03 0.009,-0.047 0,-2.532 -0.67,-5.211 -1.959,-7.73 L 51.218,6.353 C 51.523,6.161 51.615,5.757 51.424,5.451 L 48.223,0.308 C 48.032,0.001 47.63,-0.092 47.325,0.099 l -9.791,6.12 C 35.095,4.131 32.002,2.5 28.255,1.695 c 0,0 0,0 -10e-4,0 H 28.253 C 28.249,1.694 28.245,1.693 28.241,1.692 c -0.037,-0.008 -0.071,0 -0.107,-10e-4 -0.049,-0.002 -0.1,-0.01 -0.148,-0.001 -0.027,0.005 -0.05,0.021 -0.076,0.03 -0.054,0.017 -0.108,0.032 -0.155,0.063 -0.028,0.018 -0.048,0.046 -0.074,0.069 -0.037,0.032 -0.077,0.062 -0.105,0.102 -0.026,0.036 -0.037,0.08 -0.055,0.12 -0.017,0.037 -0.04,0.069 -0.05,0.11 l -0.003,0.012 c 0,0 0,0 0,0 v 0 L 26.96,4.379 C 25.651,4.139 24.261,4.006 22.785,4.006 10.641,4.006 4.088,12.673 4.088,20.828 v 3.737 H 0.652 C 0.292,24.565 0,24.859 0,25.221 c 0,0.362 0.292,0.654 0.652,0.654 h 3.435 v 18.221 c 0,0.361 0.292,0.654 0.653,0.654 h 45.734 c 0.007,0 0.014,0 0.021,0 0.36,0 0.652,-0.293 0.652,-0.654 0,-0.1 -0.671,-3.448 -0.671,-3.448 -0.059,-0.309 -0.328,-0.53 -0.64,-0.53 h -0.827 v -7.15 h 1.885 z M 48.356,31.656 H 33.301 32.83 l 7.999,-5.636 8,5.636 z m -7.025,8.461 v -7.15 h 2.76 v 7.15 z m -7.378,-7.15 h 2.61 v 7.15 h -2.61 z m 3.613,0 h 2.76 v 7.15 h -2.76 z M 47.462,1.557 49.973,5.592 48.52,6.509 46.005,2.468 Z m -1.883,1.177 2.516,4.043 -6.569,4.149 C 40.715,9.581 39.716,8.305 38.531,7.139 Z m -16.99,0.4 c 9.104,2.234 13.969,9.649 14.206,16.168 L 41.423,19.66 C 40.932,13.194 36.375,6.702 28.232,4.671 Z m -5.805,2.182 c 11.296,0 17.392,7.992 17.392,15.512 v 3.737 H 5.392 v -3.737 c 0,-7.519 6.096,-15.512 17.392,-15.512 z M 5.392,25.875 h 33.371 l -8.374,5.9 c -0.233,0.164 -0.333,0.461 -0.247,0.734 0.086,0.271 0.337,0.457 0.622,0.457 h 1.884 v 7.15 h -0.827 c -0.313,0 -0.582,0.222 -0.64,0.53 l -0.537,2.793 H 5.392 Z M 49.685,43.44 H 31.973 l 0.387,-2.014 h 16.938 z m -1.98,-3.323 h -2.61 v -7.15 h 2.61 z"
       id="obs"
       inkscape:connector-curvature="0"
       style="fill:#ffffff" />
  </g>
</svg>
